PathFileType	4	(X/Y/Z)	 s11c0403.trc
DataRate	CameraRate	NumFrames	NumMarkers	Units	OrigDataRate	OrigDataStartFrame	OrigNumFrames
200	200	6	48	mm	200	1251	2000
Frame#	Time	racr			lacr			c7			jug			rlel			rdr			llel			ldr			s2			lic			ric			lasi			rasi			rpsi			lpsi			rgt			lgt			rth1			rth2			rth3			rth4			rlfc			rmfc			rsh1			rsh2			rsh3			rsh4			rlmal			rcal			rtoe			rmt5			lth1			lth2			lth4			lth3			llfc			lmfc			llmal			lcal			lmt5			lsh1			lsh2			lsh3			lsh4			ltoe			SBIKE			LBIKE			RBIKE			
		X1	Y1	Z1	X2	Y2	Z2	X3	Y3	Z3	X4	Y4	Z4	X5	Y5	Z5	X6	Y6	Z6	X7	Y7	Z7	X8	Y8	Z8	X9	Y9	Z9	X10	Y10	Z10	X11	Y11	Z11	X12	Y12	Z12	X13	Y13	Z13	X14	Y14	Z14	X15	Y15	Z15	X16	Y16	Z16	X17	Y17	Z17	X18	Y18	Z18	X19	Y19	Z19	X20	Y20	Z20	X21	Y21	Z21	X22	Y22	Z22	X23	Y23	Z23	X24	Y24	Z24	X25	Y25	Z25	X26	Y26	Z26	X27	Y27	Z27	X28	Y28	Z28	X29	Y29	Z29	X30	Y30	Z30	X31	Y31	Z31	X32	Y32	Z32	X33	Y33	Z33	X34	Y34	Z34	X35	Y35	Z35	X36	Y36	Z36	X37	Y37	Z37	X38	Y38	Z38	X39	Y39	Z39	X40	Y40	Z40	X41	Y41	Z41	X42	Y42	Z42	X43	Y43	Z43	X44	Y44	Z44	X45	Y45	Z45	X46	Y46	Z46	X47	Y47	Z47	X48	Y48	Z48	
1251	6.2550	825.476381	1354.837402	-80.310537	784.687045	1394.260558	-438.887571	784.988843	1493.663888	-247.966610	780.011201	1311.173902	-269.054383	630.762827	1169.640501	44.076753	787.184127	977.885243	-41.620196	589.126340	1167.604947	-561.631059	789.369853	958.828868	-447.718470	203.044306	1291.278338	-194.657038	388.288842	1318.518849	-419.440792	439.943040	1251.994752	-18.995839	412.985766	1231.866436	-395.313018	463.304720	1193.997975	-63.740403	256.552354	1355.944546	-135.564920	244.925000	1362.464644	-225.689249	336.566345	1106.597172	-4.476628	306.448810	1191.771450	-428.194891	388.126141	978.675235	-4.338243	435.245263	904.641387	-21.794369	439.060531	818.471595	-40.286494	467.891446	917.509572	-32.739867	463.996162	717.991999	-60.504269	468.856639	700.690390	-184.179749	348.461418	603.303768	-48.037270	304.318683	529.085961	-68.523178	230.036225	484.210585	-70.259411	325.687796	514.086295	-98.273329	127.408020	397.932579	-84.515871	87.308091	445.175688	-136.026546	194.875538	177.914764	-140.216245	135.708459	224.023091	-71.192365	420.166228	1091.074301	-446.034980	495.188647	1051.347892	-439.919050	518.091513	1076.443742	-431.425948	543.040890	974.939429	-439.438812	641.896979	871.205244	-418.681996	655.091150	860.160235	-287.771370	378.562771	523.655679	-404.077776	306.187529	514.688111	-371.415639	458.999566	372.062355	-435.946009	569.346188	770.577677	-436.567246	540.923563	689.889569	-425.055710	474.751189	631.595197	-421.399874	568.375159	674.044874	-402.785704	550.160747	342.877490	-366.564342	-169.703944	972.903132	-174.870229	1.360147	83.069826	-460.862683	-15.175915	81.723705	-62.425606	
1252	6.2600	825.859085	1355.424026	-80.943236	785.684213	1393.701608	-439.186746	785.858984	1493.677941	-248.469151	780.184981	1310.791969	-269.039114	631.609862	1169.957354	43.800552	787.092245	977.720424	-41.879950	588.347502	1167.523315	-561.262480	789.730960	959.199325	-447.809027	203.640535	1292.299139	-195.175699	388.801794	1317.268961	-419.754193	439.986323	1253.880818	-18.705245	413.428780	1230.307799	-395.524996	463.513818	1195.444418	-63.305907	256.923461	1356.575804	-136.820405	245.388695	1363.100161	-226.310092	338.072067	1108.015853	-4.143596	305.019403	1190.434452	-427.624796	392.351566	980.465617	-4.371867	440.475286	907.009353	-21.982960	445.757158	821.163525	-40.378704	472.886298	920.352153	-32.922534	471.578690	720.443827	-61.570238	475.652917	703.795632	-185.275611	354.462209	607.220661	-48.252980	308.522384	534.006679	-68.784826	233.454885	490.839354	-70.095540	329.210928	519.013063	-98.928825	128.378423	407.266918	-84.008908	89.201737	455.454424	-135.563105	190.665225	185.913317	-140.388454	132.641957	233.108791	-71.297196	416.600101	1087.844370	-445.558482	490.969393	1046.846454	-439.922907	514.583680	1071.530557	-431.550179	537.379578	969.603449	-439.620079	635.063925	862.692409	-418.314391	648.179555	851.469160	-288.004205	375.368705	511.128970	-403.429917	302.876414	499.785855	-371.113932	460.528578	362.606527	-436.280165	562.979979	760.404210	-436.636718	535.502618	679.635057	-425.177240	470.215127	620.313418	-420.998092	563.090930	664.396763	-402.812288	552.775026	336.566094	-366.870718	-169.674597	972.906571	-174.739835	1.333529	83.032844	-460.852712	-15.208076	81.679923	-62.394494	
1253	6.2650	826.162321	1356.013045	-81.410091	786.694521	1393.118645	-439.166215	786.575324	1493.673015	-248.866977	780.464834	1310.536779	-268.853047	632.476430	1170.340481	43.657477	787.024647	977.643863	-42.245160	587.484409	1167.656607	-560.884903	789.642612	959.557482	-448.039083	204.311455	1293.065145	-195.702549	389.320017	1315.238041	-420.097733	440.188175	1255.825539	-18.384229	414.010003	1228.364203	-395.769296	463.543737	1196.573104	-62.843400	257.687065	1357.133646	-138.579785	246.377001	1363.430783	-227.621471	339.651710	1109.399823	-3.872081	303.647136	1188.962692	-427.117931	396.502358	982.042431	-4.436388	445.550940	909.294406	-22.193957	451.962114	823.631401	-40.705994	477.737970	923.119074	-33.160630	479.085654	723.007058	-61.885226	482.045377	707.084267	-186.549469	360.488773	611.345382	-48.439424	312.800367	539.431109	-69.110152	236.694925	497.769679	-70.070479	332.750869	524.042276	-99.589154	129.392496	416.954267	-83.703779	91.166117	465.978842	-135.250847	187.098259	194.399991	-140.572242	130.101042	242.648559	-71.418600	413.064565	1084.288280	-444.907951	486.743113	1041.882107	-439.896960	510.583993	1066.060265	-431.975000	531.673369	963.714532	-439.802941	627.659961	853.589364	-417.979578	640.769808	842.035507	-288.128047	371.594699	498.207677	-402.721004	299.234461	484.529774	-370.600373	461.262661	352.844535	-436.750066	556.100825	749.636309	-436.903635	529.609401	668.652893	-424.890836	465.086619	608.404871	-420.647387	557.307677	653.782249	-402.375592	554.649234	330.214418	-367.777633	-169.647681	972.892412	-174.642066	1.293050	83.027609	-460.813278	-15.246350	81.637863	-62.379532	
1254	6.2700	826.348947	1356.824365	-81.765803	787.584780	1392.391684	-439.112179	787.275776	1493.821067	-249.195879	780.880319	1310.398531	-268.395624	633.361551	1170.673647	43.697935	786.945516	977.629550	-42.768234	586.607849	1168.045919	-560.573531	789.073683	959.824104	-448.386835	204.954866	1293.560240	-196.009553	390.017369	1312.847891	-420.479839	440.165425	1257.406715	-18.356669	414.755408	1225.955605	-395.816691	463.451543	1197.702413	-62.490333	264.228309	1355.653302	-143.580263	247.451984	1363.370609	-229.058626	341.144406	1110.429908	-4.372591	302.425222	1186.990234	-426.564119	400.553018	983.676564	-4.432336	450.618507	911.599223	-22.383589	458.017112	826.043464	-40.979857	482.437359	925.750239	-33.439363	486.833791	725.761283	-62.318729	488.156742	710.404969	-187.674387	366.532318	615.590051	-48.780558	317.252606	544.996628	-68.663922	240.087190	504.864172	-70.012776	336.383652	529.141745	-100.140334	130.449188	426.834815	-83.611161	93.125064	476.553998	-135.108857	184.363055	203.325545	-140.754822	128.139040	252.726117	-71.503931	409.701501	1080.266909	-444.198562	482.359260	1036.172407	-440.339482	509.340750	1060.643985	-431.641376	525.840568	957.367062	-440.005449	619.577183	844.056147	-417.547191	632.843261	832.093993	-288.278811	367.371861	484.842548	-401.869045	295.410941	469.017588	-370.007276	461.372865	342.643926	-437.130361	548.892925	738.201070	-436.872877	523.219373	657.251357	-424.721667	459.492615	596.098511	-420.370337	551.037913	642.866049	-402.053574	555.875368	322.912274	-368.332722	-169.652717	972.825780	-174.743737	1.306182	82.938638	-460.822096	-15.250337	81.606123	-62.375572	
1255	6.2750	826.492086	1357.653708	-81.806726	788.506944	1391.537827	-438.914019	787.836165	1494.059473	-249.460972	781.424905	1310.360856	-267.808322	634.129953	1170.964833	43.778794	786.914754	977.455430	-43.183910	585.654981	1168.528372	-560.312214	788.229771	959.938473	-448.866726	205.698848	1293.779676	-196.464738	390.714019	1309.754311	-420.736022	440.127996	1258.705089	-18.357054	415.756600	1223.100322	-395.724786	463.333249	1198.277294	-62.259904	258.014063	1358.755691	-140.596129	248.574062	1362.995582	-230.613890	342.809770	1111.578811	-4.015130	301.302440	1184.729720	-425.884341	404.486689	985.169550	-4.466190	455.371563	913.826431	-22.721891	463.928694	828.343831	-40.910683	487.007420	928.381691	-33.791069	494.601500	728.417386	-62.327698	494.023949	713.670352	-188.708895	372.526586	619.938620	-49.111031	322.007130	550.439242	-68.707432	243.411464	512.255861	-70.084434	341.211310	534.785227	-100.163722	131.794645	436.916506	-83.766342	95.226811	487.296753	-135.280263	182.461323	212.634320	-140.732465	127.072078	262.760282	-71.568291	406.531175	1075.837462	-443.478640	478.473097	1030.382861	-439.887522	506.142249	1054.276736	-431.668181	519.948670	950.452932	-439.782431	610.868206	834.039202	-417.014677	624.698717	821.699900	-287.685289	362.849563	471.424498	-401.052858	291.428058	453.584507	-369.533606	460.853539	332.200836	-437.518432	541.279987	726.591704	-436.930661	516.487681	645.527494	-424.256037	453.663200	583.419856	-420.078522	544.402766	631.539288	-401.415106	556.230717	315.044200	-368.970403	-169.743995	972.681273	-175.008148	1.298325	82.879155	-460.843011	-15.267808	81.601354	-62.360808	
1256	6.2800	826.579772	1358.665081	-81.707579	789.415538	1390.811244	-438.805690	788.322348	1494.261329	-249.554799	782.026092	1310.498812	-267.145812	634.931895	1171.261462	43.907050	786.903121	977.260593	-43.782399	584.800361	1169.079246	-560.075355	787.200619	959.895749	-449.390161	206.278257	1293.793488	-196.748956	391.611759	1306.524515	-421.056052	439.928309	1259.754106	-18.605684	416.826040	1220.014381	-395.585957	463.171363	1198.903024	-62.133523	264.994597	1356.396278	-145.770091	248.850726	1362.630053	-231.381568	344.506011	1112.609363	-3.691761	300.337679	1181.945206	-425.232744	408.330354	986.515610	-4.543745	460.144384	916.001704	-23.000196	469.849597	830.567099	-41.091050	491.528594	931.083575	-34.237974	502.614397	731.030238	-62.159180	499.702667	716.920084	-189.549249	378.569579	624.287306	-49.516071	326.372883	556.060700	-69.082753	246.754271	519.924357	-70.458963	345.040245	539.989857	-100.701129	133.404518	447.104519	-84.078348	97.569489	498.074608	-135.521193	181.315567	222.179181	-140.819132	126.559790	273.240254	-71.615872	403.523126	1070.851228	-442.417807	474.412667	1023.863430	-439.441427	502.777627	1047.134164	-431.904565	514.047161	943.002585	-439.438161	601.517554	823.619208	-416.408325	615.661287	811.002827	-287.864852	358.324314	457.873396	-400.203777	287.597236	438.601024	-369.202321	459.846413	321.543335	-437.950126	533.044992	715.000268	-437.439740	509.512632	633.531436	-423.893905	447.677369	570.482219	-419.791374	537.570188	620.005588	-400.774055	555.920953	306.683743	-369.461517	-169.748873	972.575601	-175.292442	1.293492	82.765371	-460.895195	-15.285074	81.567279	-62.362527	
